<svg width="231" height="68" viewBox="0 0 231 68" fill="none" xmlns="http://www.w3.org/2000/svg">
<path d="M18 35H33V41C33 44.3137 30.3137 47 27 47H18V35Z" fill="#295EFF"/>
<rect x="1" y="49" width="15" height="12" fill="#295EFF"/>
<path d="M18 49H27C30.3137 49 33 51.6863 33 55V61H18V49Z" fill="#295EFF"/>
<path d="M35 55C35 51.6863 37.6863 49 41 49H50V61H35V55Z" fill="#658BFF"/>
<path d="M52 41C52 37.6863 54.6863 35 58 35H67V61H52V41Z" fill="#658BFF"/>
<path d="M52 7H67V33H58C54.6863 33 52 30.3137 52 27V7Z" fill="#658BFF"/>
<path d="M35 35H44C47.3137 35 50 37.6863 50 41V47H41C37.6863 47 35 44.3137 35 41V35Z" fill="#658BFF"/>
<path d="M35 21H50V27C50 30.3137 47.3137 33 44 33H35V21Z" fill="#658BFF"/>
<path d="M80.9434 22.4014V18.4434H104.609V22.4014H95.0938V49H90.5V22.4014H80.9434ZM104.467 49V26.0723H108.753V29.7432H108.999C109.423 28.5127 110.161 27.542 111.214 26.8311C112.28 26.1064 113.483 25.7441 114.823 25.7441C115.097 25.7441 115.418 25.7578 115.787 25.7852C116.17 25.7988 116.477 25.8193 116.71 25.8467V30.1123C116.532 30.0576 116.211 30.0029 115.746 29.9482C115.295 29.8936 114.837 29.8662 114.372 29.8662C113.319 29.8662 112.376 30.0918 111.542 30.543C110.722 30.9805 110.072 31.5889 109.594 32.3682C109.129 33.1338 108.896 34.0225 108.896 35.0342V49H104.467ZM124.463 49.4922C123.013 49.4922 121.701 49.2256 120.525 48.6924C119.349 48.1455 118.42 47.3525 117.736 46.3135C117.052 45.2744 116.711 44.0098 116.711 42.5195C116.711 41.2207 116.957 40.1611 117.449 39.3408C117.955 38.5068 118.632 37.8438 119.479 37.3516C120.327 36.8594 121.27 36.4902 122.309 36.2441C123.348 35.998 124.415 35.8066 125.508 35.6699C126.889 35.5195 128.004 35.3896 128.851 35.2803C129.699 35.1709 130.314 35 130.697 34.7676C131.093 34.5215 131.292 34.1318 131.292 33.5986V33.4961C131.292 32.1973 130.923 31.1924 130.184 30.4814C129.46 29.7705 128.38 29.415 126.944 29.415C125.454 29.415 124.271 29.7432 123.396 30.3994C122.535 31.042 121.94 31.7734 121.612 32.5938L117.408 31.6299C117.914 30.2354 118.645 29.1143 119.602 28.2666C120.573 27.4053 121.68 26.7764 122.924 26.3799C124.182 25.9834 125.495 25.7852 126.862 25.7852C127.778 25.7852 128.749 25.8945 129.774 26.1133C130.799 26.3184 131.763 26.708 132.666 27.2822C133.582 27.8428 134.327 28.6494 134.901 29.7021C135.475 30.7549 135.762 32.1152 135.762 33.7832V49H131.394V45.8623H131.23C130.957 46.4229 130.526 46.9834 129.938 47.5439C129.364 48.1045 128.626 48.5693 127.723 48.9385C126.821 49.3076 125.734 49.4922 124.463 49.4922ZM125.426 45.9238C126.671 45.9238 127.73 45.6846 128.605 45.2061C129.48 44.7139 130.15 44.0713 130.615 43.2783C131.08 42.4854 131.312 41.6445 131.312 40.7559V37.7822C131.148 37.9326 130.841 38.0762 130.389 38.2129C129.938 38.3496 129.425 38.4658 128.851 38.5615C128.277 38.6572 127.716 38.7461 127.17 38.8281C126.623 38.8965 126.165 38.9512 125.796 38.9922C124.934 39.1152 124.148 39.3066 123.437 39.5664C122.726 39.8125 122.152 40.1816 121.715 40.6738C121.291 41.1523 121.079 41.7881 121.079 42.5811C121.079 43.6885 121.489 44.5225 122.309 45.083C123.13 45.6436 124.169 45.9238 125.426 45.9238ZM148.827 49.4717C146.626 49.4717 144.725 48.9658 143.126 47.9541C141.526 46.9424 140.295 45.5479 139.434 43.7705C138.573 41.9932 138.142 39.9561 138.142 37.6592C138.142 35.3213 138.58 33.2637 139.455 31.4863C140.343 29.6953 141.581 28.3008 143.167 27.3027C144.766 26.291 146.639 25.7852 148.786 25.7852C150.536 25.7852 152.087 26.1064 153.441 26.749C154.808 27.3779 155.909 28.2734 156.743 29.4355C157.59 30.5977 158.089 31.9512 158.24 33.4961H153.892C153.742 32.7715 153.448 32.1084 153.01 31.5068C152.586 30.9053 152.026 30.4268 151.329 30.0713C150.631 29.7158 149.804 29.5381 148.847 29.5381C147.603 29.5381 146.516 29.8662 145.586 30.5225C144.67 31.165 143.953 32.0879 143.433 33.291C142.914 34.4941 142.654 35.916 142.654 37.5566C142.654 39.2109 142.907 40.6533 143.413 41.8838C143.918 43.1143 144.636 44.0645 145.566 44.7344C146.509 45.3906 147.603 45.7188 148.847 45.7188C150.132 45.7188 151.226 45.3633 152.128 44.6523C153.044 43.9414 153.632 42.9707 153.892 41.7402H158.24C158.089 43.2305 157.611 44.5566 156.804 45.7188C155.998 46.8809 154.917 47.7969 153.564 48.4668C152.21 49.1367 150.631 49.4717 148.827 49.4717ZM164.66 41.2275L164.598 35.793H165.398L174.524 26.0723H179.856L169.458 37.1465H168.72L164.66 41.2275ZM160.558 49V18.4434H164.988V49H160.558ZM174.995 49L166.792 38.1309L169.869 34.9932L180.492 49H174.995ZM181.333 49V26.0723H185.619V29.7432H185.865C186.289 28.5127 187.028 27.542 188.08 26.8311C189.147 26.1064 190.35 25.7441 191.69 25.7441C191.963 25.7441 192.284 25.7578 192.654 25.7852C193.036 25.7988 193.344 25.8193 193.576 25.8467V30.1123C193.399 30.0576 193.077 30.0029 192.613 29.9482C192.161 29.8936 191.703 29.8662 191.238 29.8662C190.186 29.8662 189.242 30.0918 188.408 30.543C187.588 30.9805 186.939 31.5889 186.46 32.3682C185.995 33.1338 185.763 34.0225 185.763 35.0342V49H181.333Z" fill="#101828"/>
<path d="M199.152 49H193.226L204.013 18.4434H210.821L221.588 49H215.682L207.52 24.7188H207.273L199.152 49ZM199.357 37.0234H215.456V41.4531H199.357V37.0234ZM228.746 18.4434V49H223.209V18.4434H228.746Z" fill="#101828"/>
</svg>
